<svg xmlns="http://www.w3.org/2000/svg" width="160" height="160" viewBox="0 0 160 160"><defs><style>.cls-1{fill:#3591d0;}</style></defs><path class="cls-1" d="M53.57,5.39A7.62,7.62,0,0,0,51,11.13a7.24,7.24,0,0,0,.11,1.31,22.88,22.88,0,0,1-7,3.61,15.71,15.71,0,0,0-20.73.06A50,50,0,0,1,14.49,13,6,6,0,0,0,13,8.3,6.13,6.13,0,1,0,12.48,17a6,6,0,0,0,1.3-1.62,56.13,56.13,0,0,1,7.91,2.56,15.6,15.6,0,0,0-3.48,12.18,40.11,40.11,0,0,1-4.78,2.08,5.18,5.18,0,0,0-7-.09A5.24,5.24,0,1,0,15,35a43.75,43.75,0,0,1,3.83-2.23A15.05,15.05,0,0,0,22,38.31a15.78,15.78,0,0,0,13.25,5.25C35.1,45.15,35,48.46,35,52s-.15,7.1-.28,8.88a10.78,10.78,0,0,0-3.9,1.55,11.51,11.51,0,0,0-3.53,15.87,11.49,11.49,0,0,0,20.28-1.69,56.42,56.42,0,0,1,20.72,4.78,29.33,29.33,0,0,0,4,9.78,30,30,0,0,0,5.31,6.24,64.46,64.46,0,0,1-5.82,6.11,13.65,13.65,0,0,0-13.46.73,13.78,13.78,0,0,0,4.41,25.07,13.78,13.78,0,0,0,14.61-20.84L76,106.74a65.56,65.56,0,0,1,5.57-6.38,29.37,29.37,0,0,0,27.66,1.9,42.32,42.32,0,0,1,4,12,14.11,14.11,0,0,0-5.73,7.19,56.06,56.06,0,0,1-9,1.19,6,6,0,0,0-3.46-3.55,6.13,6.13,0,1,0,3.45,7.94,5.89,5.89,0,0,0,.42-2,55.93,55.93,0,0,1,8.06-1.3,13.15,13.15,0,0,0-.25,3.76,15.8,15.8,0,0,0,2.84,8.65,41.51,41.51,0,0,1-3.3,4,5.19,5.19,0,0,0-6.3,3.11,5.26,5.26,0,0,0,3,6.81,5.19,5.19,0,0,0,4-.08,5.14,5.14,0,0,0,2.78-2.88,5.27,5.27,0,0,0-.75-5.16,43.16,43.16,0,0,1,2.4-3.73,14.88,14.88,0,0,0,5.31,3.51,15.79,15.79,0,0,0,14.2-1.36h0c0,.07.35.92.35.92a35,35,0,0,1,1.76,4.67,5.83,5.83,0,0,0-1.18,1.87,6.12,6.12,0,1,0,7.94-3.46,6.17,6.17,0,0,0-3.63-.26h0c0-.07-.7-1.9-.7-1.9a22.58,22.58,0,0,1-1.29-4.6,15.47,15.47,0,0,0,2.95-4.76,16,16,0,0,0,1-4.24,39,39,0,0,1,4.43.6,7.33,7.33,0,1,0,9.89-8.09,7.34,7.34,0,0,0-9.51,4.13l-.33,1.09A34.22,34.22,0,0,1,138,126a15.58,15.58,0,0,0-7.83-12.48,23,23,0,0,1,3.94-5.44,7.64,7.64,0,1,0-3.41-2.55,23,23,0,0,1-4.57,6.38,15.1,15.1,0,0,0-5.57-.38,42.32,42.32,0,0,1-4.43-13.55,29.57,29.57,0,0,0,6-38.53l-.07-.12a122.79,122.79,0,0,1,9.22-16.83,11.47,11.47,0,1,0-6.63-4.88,11.65,11.65,0,0,0,2.62,2.89,126.93,126.93,0,0,1-7.93,15.29,29.42,29.42,0,0,0-21.61-10,75.22,75.22,0,0,1-2.5-9.5,9.76,9.76,0,0,0,2.24-13,9.84,9.84,0,1,0-8,15.11,73.83,73.83,0,0,1,3,7.8,28.7,28.7,0,0,0-11.22,4.22A29.69,29.69,0,0,0,67.67,73.4,56.59,56.59,0,0,1,48.2,69.79a11.23,11.23,0,0,0-1.55-3.86,11.48,11.48,0,0,0-8.36-5.25s.26-6.12.26-6.12c.11-4.51.24-9.63.85-12a15.57,15.57,0,0,0,4.8-2.89A16,16,0,0,0,47,36.38a37.22,37.22,0,0,1,3.67,2.56,7.22,7.22,0,0,0,1.49,7,7.34,7.34,0,1,0,11-9.71,7.34,7.34,0,0,0-10.35-.64l-.79.81a36.58,36.58,0,0,1-3.8-2.4A15.59,15.59,0,0,0,47,19.32a23.11,23.11,0,0,1,6-3.05,7.67,7.67,0,1,0,.62-10.88Z"/></svg>